<svg xmlns="http://www.w3.org/2000/svg" xmlns:xlink="http://www.w3.org/1999/xlink" fill="none" viewBox="0 0 151 32"><defs><path id="a" fill="#4F46E5" fill-rule="evenodd" d="M32 7.09v17.82A7.1 7.1 0 0 1 24.91 32H7.09A7.1 7.1 0 0 1 0 24.91V7.09A7.1 7.1 0 0 1 7.09 0h17.82A7.1 7.1 0 0 1 32 7.09Z" clip-rule="evenodd"/></defs><use xlink:href="#a" fill-rule="evenodd" clip-rule="evenodd"/><use xlink:href="#a" fill-rule="evenodd" clip-rule="evenodd"/><mask id="b" width="32" height="32" x="0" y="0" maskUnits="userSpaceOnUse" style="mask-type:alpha"><use xlink:href="#a" fill-rule="evenodd" clip-rule="evenodd"/></mask><g mask="url(#b)"><path fill="#fff" fill-rule="evenodd" d="M10.43 14.89h4.54l-1.51 8.55c2.62-2.3 6.14-2.96 8.88-1.37 3.62 2.09 4.53 7.27 2.05 11.57-2.49 4.3-7.43 6.1-11.05 4.02a6.48 6.48 0 0 1-2.06-1.89l-.4 2.26H6.35l4.08-23.14Zm3.05 18.2c1.53 1.52 4.24 1.28 6.06-.53 1.82-1.82 2.05-4.53.53-6.06-1.53-1.52-4.24-1.29-6.06.53-1.81 1.82-2.05 4.53-.53 6.05Z" clip-rule="evenodd"/></g><path fill="#3730A3" fill-rule="evenodd" d="M2.14 4.4A4.48 4.48 0 0 1 6.4 1.35h19.03a4.48 4.48 0 0 1 4.24 3.07H2.14Z" clip-rule="evenodd"/><path fill="#FACC15" d="M21.39 5.62c.47 0 .86.39.8.86a6.13 6.13 0 0 1-12.14 0c-.07-.47.32-.86.8-.86.47 0 .84.4.94.86a4.41 4.41 0 0 0 8.65 0c.1-.47.47-.86.95-.86Z"/><path fill="#4F46E5" d="M47.07 24.96c-1.63 0-3.19-.67-3.91-1.6v1.39h-3.48V6.99h3.48v6.55c.72-.94 2.28-1.61 3.91-1.61 3.29 0 6.24 2.57 6.24 6.53 0 4.1-2.95 6.5-6.24 6.5Zm-3.93-6.5a3.2 3.2 0 0 0 3.3 3.24 3.17 3.17 0 0 0 3.32-3.24 3.17 3.17 0 0 0-3.31-3.24 3.2 3.2 0 0 0-3.31 3.24Zm16.75 6.5c-2.78 0-4.54-2.13-4.54-4.63v-8.18h3.48v7.22c0 1.34.99 2.23 2.19 2.23 1.39 0 2.2-.98 2.2-2.23v-7.22h3.49v10.12l.86 2.48h-3.91l-.43-1.3a4.09 4.09 0 0 1-3.34 1.51Zm11.4 5.28 2.32-5.59-4.97-12.5h3.99l3.04 8.54 2.86-8.54h4.08l-7.2 18.1h-4.13Zm13.37-5.5V7h3.48v6.7a3.81 3.81 0 0 1 3.33-1.76 4.33 4.33 0 0 1 4.54 4.37v8.45h-3.48v-7.23c0-1.34-.99-2.23-2.19-2.23-1.39 0-2.2.98-2.2 2.23v7.23h-3.48Zm19.62.22c-3.29 0-6.24-2.4-6.24-6.5 0-3.96 2.95-6.53 6.24-6.53 1.63 0 3.19.67 3.91 1.6v-1.38h3.48v12.6h-3.48v-1.4c-.72.94-2.28 1.61-3.91 1.61Zm-2.69-6.5a3.17 3.17 0 0 0 3.31 3.24 3.2 3.2 0 0 0 3.31-3.24 3.2 3.2 0 0 0-3.3-3.24 3.17 3.17 0 0 0-3.32 3.24Zm14.02 6.29v-9.36h-2.01v-3.24h2.09V9.19h3.4v2.96h3v3.24h-3v6h3.05v3.36h-6.53Zm9.05 0V6.99h3.48v8.97h1.42l2.6-3.81h4.07l-3.84 5.59 3.91 7h-3.96l-2.95-5.23h-1.25v5.24h-3.48Zm18.46.21c-4.27 0-6.7-2.9-6.7-6.5 0-3.65 2.74-6.53 6.7-6.53 4.2 0 6.44 3.24 6.44 6.53v1.27h-9.58c.46 1.49 1.68 2.18 3.14 2.18 1.92 0 2.96-1.05 3.27-1.7l2.64 1.58c-.48 1.08-2.33 3.17-5.9 3.17ZM140.05 17h5.88c-.1-.74-.91-2.08-2.85-2.08-1.25 0-2.52.67-3.03 2.08Z"/></svg>